<svg width="143" height="41" viewBox="0 0 143 41" fill="none" xmlns="http://www.w3.org/2000/svg">
<path fill-rule="evenodd" clip-rule="evenodd" d="M131.341 0.53624C129.235 0.787211 127.744 1.19307 126.596 1.82832C124.421 3.03103 122.839 4.38586 121.56 6.13945C120.076 8.17464 119.147 10.5816 118.897 13.0424C118.815 13.8435 118.856 15.3289 118.983 16.1857C119.3 18.324 120.175 20.4167 121.484 22.1641C121.984 22.8308 123.426 24.2654 124.068 24.7333C125.438 25.733 126.9 26.4161 128.589 26.8454C129.887 27.1754 130.699 27.2724 132.173 27.2736C134.083 27.2753 134.761 27.1428 136.179 26.4906C137.801 25.7447 138.504 25.2546 139.885 23.9061C140.742 23.0685 141.154 22.5546 141.832 21.4754L142.251 20.8082L142.097 20.6834C142.013 20.6147 141.862 20.5103 141.762 20.4514L141.581 20.3442L141.229 20.8843C139.736 23.1758 137.411 25.106 135.572 25.5802C134.143 25.949 132.226 25.9007 130.719 25.4581C129.772 25.1801 128.523 24.5869 127.769 24.0573C127.162 23.6307 125.937 22.3721 125.528 21.7549C124.55 20.2803 123.916 18.5434 123.594 16.463C123.442 15.4824 123.444 12.9788 123.596 11.9638C123.882 10.0666 124.336 8.45408 124.965 7.10906C125.646 5.65131 126.903 4.18431 128.224 3.30518C128.817 2.91035 129.946 2.358 130.601 2.14136C131.993 1.68132 133.475 1.62438 134.645 1.98586C135.274 2.18006 136.453 2.72792 136.956 3.05969C137.49 3.4123 138.702 4.59948 139.153 5.21125C139.979 6.33322 140.499 7.60502 140.625 8.80508L140.665 9.19029H141.126H141.588L141.55 8.71264C141.529 8.44995 141.497 7.99923 141.479 7.71109C141.368 5.96829 141.26 4.28977 141.232 3.88983C141.185 3.21994 141.017 0.607612 141.017 0.54943C141.017 0.52225 140.867 0.5 140.683 0.5C140.351 0.5 140.348 0.501541 140.275 0.731125C140.147 1.1318 139.774 1.79171 139.588 1.94844C139.214 2.26333 138.612 2.28225 138.12 1.99448C136.996 1.33778 135.489 0.774823 134.519 0.649769C133.839 0.562065 131.75 0.487488 131.341 0.53624ZM37.5504 2.8706L35.4083 4.99473L37.6733 4.99695L39.9384 4.99923V7.18721V9.37519H35.4991H31.0598L30.34 10.1192C29.9442 10.5284 29.5838 10.9152 29.5392 10.9788C29.4947 11.0424 28.8417 11.6835 28.0881 12.4034C27.3346 13.1234 26.708 13.7372 26.6958 13.7676C26.6836 13.798 26.7252 13.8174 26.7882 13.8107C26.8513 13.804 29.8362 13.8018 33.4214 13.8057L39.9399 13.8128L39.9237 16.047L39.9076 18.2812L30.9935 18.2968L22.0794 18.3124L20.6083 19.8111C19.7991 20.6353 18.822 21.6476 18.4368 22.0605L17.7365 22.8112H28.8374H39.9384V24.9992V27.1872L26.641 27.1889L13.3436 27.1907L12.2115 28.2649C11.5888 28.8558 10.6128 29.8327 10.0427 30.4358L9.00604 31.5324L24.4568 31.5632L39.9076 31.594L39.9237 33.8282L39.9399 36.0624H22.1445H4.34915L2.17461 38.2338C0.978552 39.4281 0 40.4265 0 40.4526C0 40.4787 17.8891 40.5 39.7535 40.5C61.6179 40.5 79.5069 40.4792 79.5069 40.4537C79.5069 40.3734 39.8496 0.746533 39.7692 0.746533C39.727 0.746533 38.7286 1.7024 37.5504 2.8706ZM67.0491 1.25501C67.0448 1.36515 67.0345 1.52213 67.0263 1.60373C67.018 1.68539 66.993 2.10142 66.9707 2.52823C66.9484 2.9551 66.8905 4.02542 66.8422 4.90678C66.7938 5.78814 66.7476 6.67565 66.7396 6.87904L66.7249 7.24884H67.0502H67.3756L67.5542 6.55516C67.923 5.12305 68.3209 4.34117 69.0547 3.60644C69.6209 3.03948 70.0459 2.80324 70.8844 2.58924C71.3474 2.47109 71.6192 2.45396 73.453 2.42715L75.5038 2.3972L75.4849 13.0511C75.4671 23.1112 75.4598 23.7255 75.3548 24.0747C75.1964 24.6013 74.8983 25.1327 74.6423 25.3449C74.1222 25.7759 73.1321 26.0628 72.1231 26.0747L71.8579 26.0778L71.8766 26.4014L71.8952 26.725L77.4576 26.7407L83.02 26.7565V26.4171V26.0778L82.7889 26.0763C82.1043 26.0719 81.1731 25.8977 80.7166 25.6887C80.2763 25.4871 79.9728 25.205 79.7865 24.8244C79.4347 24.1053 79.4453 24.4735 79.4453 12.9737V2.4073L81.1864 2.41673C83.0303 2.42666 83.6954 2.48983 84.3816 2.72028C85.7856 3.19171 86.8788 4.62635 87.2852 6.53045C87.3551 6.85778 87.4216 7.16028 87.433 7.20262C87.4461 7.25131 87.568 7.27966 87.7639 7.27966H88.074V6.80336C88.074 6.28145 87.9704 3.36903 87.9221 2.5339C87.9055 2.24576 87.8912 1.79504 87.8904 1.53236L87.8891 1.0547H77.473H67.057L67.0491 1.25501ZM92.0634 1.10062C92.0499 1.12619 92.0324 1.27516 92.0245 1.43165L92.0102 1.71615L92.5845 1.76022C94.064 1.87374 94.9232 2.25606 95.2827 2.96077C95.3466 3.08595 95.4496 3.36706 95.5114 3.58536C95.6184 3.96225 95.624 4.4812 95.624 13.8744C95.624 23.0741 95.6165 23.7958 95.5167 24.1839C95.4578 24.4135 95.3548 24.7084 95.288 24.8394C94.923 25.5549 94.0721 25.9361 92.5856 26.0502L92.0126 26.0941L92.0309 26.4096L92.0493 26.725L102.031 26.7398C107.521 26.748 112.033 26.7341 112.057 26.709C112.108 26.6568 114.221 19.7835 114.194 19.7617C114.155 19.7314 113.569 19.5459 113.557 19.5603C113.55 19.5687 113.441 19.839 113.314 20.161C112.784 21.5102 112.031 22.6413 110.993 23.648C110.145 24.4702 109.586 24.8124 108.597 25.1156C107.515 25.4475 107.246 25.4706 104.07 25.5049C101.934 25.5279 101.024 25.5168 100.792 25.4647C100.396 25.3762 100.052 25.0574 99.8016 24.5471L99.6302 24.198L99.6115 14.3059C99.5919 3.98394 99.5945 3.86888 99.8532 3.17618C100.178 2.30573 101.015 1.87424 102.604 1.75763L103.18 1.71535L103.162 1.40046L103.143 1.08552L97.6155 1.0698C94.5753 1.06111 92.0768 1.07498 92.0634 1.10062ZM124.006 36.3089V40.0686H124.468H124.931V36.3089V32.5493H124.468H124.006V36.3089ZM109.153 33.7269C109.153 34.7657 109.145 34.8398 109.045 34.7983C108.647 34.6338 108.139 34.5224 107.785 34.5221C106.867 34.521 105.98 35.0811 105.566 35.923C105.382 36.2969 105.365 36.3826 105.342 37.0741C105.315 37.9073 105.399 38.6008 105.579 39.006C105.644 39.1542 105.874 39.4517 106.09 39.6672C106.56 40.1379 106.968 40.2951 107.545 40.228C107.916 40.1849 108.533 39.9248 108.865 39.6713C108.979 39.5847 109.09 39.5139 109.112 39.5139C109.134 39.5139 109.153 39.6248 109.153 39.7604V40.0069H109.615H110.077V36.3089V32.6109H109.615H109.153V33.7269ZM86.0265 34.6704C85.7987 34.7508 85.476 34.9166 85.3095 35.0389C85.1429 35.1611 84.9895 35.2612 84.9686 35.2612C84.9477 35.2612 84.9307 35.1225 84.9307 34.953V34.6448H84.4992H84.0678V37.3259V40.0069H84.4992H84.9307L84.9342 38.0501L84.9377 36.0932L85.233 35.8685C85.6665 35.5386 85.8965 35.4362 86.2812 35.4016C86.6979 35.3642 87.0882 35.4609 87.318 35.6585L87.4884 35.805L87.5076 37.906L87.5267 40.0069H87.9844H88.442L88.4583 38.0227L88.4746 36.0386L88.9342 35.727L89.3939 35.4154L89.9204 35.4154C90.3362 35.4153 90.4908 35.4411 90.656 35.5385C91.0004 35.7415 91.0303 35.9471 91.0314 38.1117L91.0324 40.0069H91.5017H91.971L91.942 37.9268C91.9167 36.1174 91.8982 35.8034 91.7994 35.5142C91.4211 34.4066 89.9649 34.2013 88.6807 35.0745C88.2509 35.3668 88.1356 35.4015 88.1356 35.2388C88.1356 35.0978 87.7288 34.7656 87.4058 34.6429C86.9834 34.4824 86.5337 34.4914 86.0265 34.6704ZM98.0277 34.6045C97.6285 34.7361 97.4287 34.8612 97.1242 35.1702C96.5827 35.7197 96.3354 36.3979 96.3337 37.3383C96.3313 38.6479 96.8338 39.5695 97.7996 40.027C98.1739 40.2043 98.2676 40.2226 98.7982 40.222C99.3029 40.2215 99.4324 40.1987 99.7366 40.0566C100.725 39.5952 101.184 38.8296 101.246 37.5416C101.297 36.4668 101.09 35.8305 100.482 35.1929C100.015 34.7033 99.677 34.565 98.8906 34.5415C98.4979 34.5298 98.1848 34.5526 98.0277 34.6045ZM130.693 34.5877C130.592 34.6215 130.342 34.6691 130.139 34.6933L129.769 34.7373L129.758 35.2458C129.752 35.5255 129.766 35.7542 129.79 35.7542C129.814 35.7542 130.049 35.6711 130.313 35.5694C130.888 35.3483 131.629 35.2712 132.147 35.3789C132.629 35.4793 132.931 35.7884 132.984 36.2361L133.022 36.5555H132.499C131.894 36.5555 130.898 36.6933 130.467 36.8365C130.289 36.8955 130.035 37.0577 129.838 37.2369C129.566 37.4855 129.491 37.6013 129.408 37.8984C129.282 38.3462 129.279 38.7219 129.399 39.1251C129.553 39.642 130.175 40.1222 130.825 40.2263C131.125 40.2741 131.996 40.1079 132.143 39.9751C132.198 39.9248 132.266 39.8837 132.294 39.8837C132.321 39.8837 132.479 39.8005 132.644 39.6988C132.81 39.5971 132.958 39.5139 132.975 39.5139C132.991 39.5139 133.005 39.6248 133.005 39.7604V40.0069H133.47H133.935L133.917 37.9884L133.898 35.97L133.725 35.6003C133.497 35.1122 133.388 35.0064 132.862 34.7609C132.442 34.5647 132.38 34.5533 131.649 34.5401C131.225 34.5324 130.795 34.5539 130.693 34.5877ZM114.776 36.725C114.798 38.4755 114.819 38.8569 114.908 39.132C115.099 39.7201 115.722 40.174 116.424 40.2363C116.861 40.2752 117.405 40.0965 117.978 39.7262L118.398 39.4547V39.7308V40.0069H118.829H119.26V37.3259V34.6448H118.829H118.398V36.6761V38.7075L118.135 38.8614C117.708 39.1118 117.062 39.329 116.747 39.328C116.364 39.3268 115.969 39.1873 115.94 39.0424C115.928 38.98 115.865 38.8626 115.801 38.7817C115.694 38.6444 115.686 38.4984 115.686 36.6396V34.6448H115.218H114.75L114.776 36.725ZM138.675 37.3259V40.0069H139.106H139.538V38.1046V36.2022L139.907 35.9545C140.405 35.6198 140.994 35.4596 141.364 35.5584C141.513 35.5983 141.718 35.631 141.819 35.631H142.003V35.1768V34.7226L141.772 34.6844C141.134 34.579 140.676 34.6914 140.014 35.1163C139.784 35.2638 139.583 35.3844 139.567 35.3844C139.551 35.3844 139.538 35.218 139.538 35.0146V34.6448H139.106H138.675V37.3259ZM108.921 35.534L109.153 35.6326V37.1995V38.7665L108.578 39.0477C108.064 39.2995 107.959 39.329 107.576 39.329C106.886 39.329 106.552 39.0712 106.347 38.38C106.222 37.9586 106.221 36.87 106.345 36.4566C106.504 35.9296 107.024 35.4289 107.519 35.3251C107.754 35.2758 108.618 35.4046 108.921 35.534ZM99.4074 35.4424C100.103 35.7973 100.48 36.7289 100.337 37.7374C100.185 38.8108 99.5901 39.4547 98.7539 39.4509C98.3515 39.449 98.0109 39.2797 97.7006 38.9272C97.3494 38.5282 97.2342 38.124 97.2356 37.2951C97.2364 36.7697 97.2613 36.5923 97.368 36.3525C97.5367 35.9729 97.812 35.6406 98.1045 35.4636C98.4123 35.2772 99.0628 35.2667 99.4074 35.4424ZM133.005 38.0335C133.005 38.8286 133.004 38.8338 132.855 38.871C132.773 38.8916 132.559 39.003 132.38 39.1187C132.071 39.3174 132.024 39.329 131.51 39.329C130.609 39.329 130.231 39.0792 130.231 38.4848C130.231 38.3017 130.273 38.07 130.325 37.9701C130.47 37.69 131.013 37.4467 131.68 37.3638C131.985 37.3258 132.304 37.2847 132.388 37.2724C132.473 37.2602 132.646 37.2464 132.773 37.2418L133.005 37.2334V38.0335Z" fill="#2F4273"/>
</svg>
