<svg width="93" height="39" viewBox="0 0 93 39" fill="none" xmlns="http://www.w3.org/2000/svg">
<path fill-rule="evenodd" clip-rule="evenodd" d="M6.62191 0.179642C4.56599 0.581651 3.09094 1.39758 1.98665 2.74391C0.618417 4.41186 0.00114515 6.52298 1.69831e-06 9.53864C-0.000951176 11.9324 0.399066 13.8111 1.21101 15.2269C1.68773 16.0581 2.82318 17.1321 3.668 17.5509C5.12189 18.2717 6.26277 18.4977 8.43237 18.4947C10.0072 18.4926 10.6806 18.4299 12.4106 18.1247L13.2444 17.9776V13.5102V9.04276H10.428H7.61147L7.64082 9.42861C7.66912 9.802 7.69866 9.83367 8.55148 10.405L9.43289 10.9956V14.2683C9.43289 17.2984 9.4205 17.546 9.26614 17.6073C9.17447 17.6439 8.62771 17.6736 8.05122 17.6736C7.15533 17.6734 6.94636 17.6441 6.61286 17.4713C5.60395 16.9487 5.03223 15.7804 4.74684 13.6582C4.58333 12.4421 4.58333 7.14709 4.74684 5.99654C5.05538 3.82606 5.62987 2.23686 6.37483 1.49321C6.87356 0.995383 7.24776 0.817502 7.9202 0.758424C8.38883 0.717253 8.55253 0.747623 8.9959 0.95772C9.88932 1.38124 10.4955 2.39111 11.258 4.72645L11.6721 5.99497L12.363 5.99571L13.0538 5.99654V3.14306V0.289583L12.6965 0.235028C10.7988 -0.0546401 7.95269 -0.0805792 6.62191 0.179642ZM30.2532 0.977844C29.3623 1.04698 28.5798 1.12314 28.5142 1.14705C28.3215 1.21757 28.3758 1.45905 28.681 1.88876L28.9668 2.29123L28.9664 9.65939L28.966 17.0275L28.681 17.4429C28.1526 18.2129 28.0591 18.1814 30.8726 18.1814H33.35L33.3497 17.9737C33.3494 17.8594 33.2209 17.5791 33.0642 17.3506L32.7792 16.9352L32.7787 8.88122L32.7783 0.827194L32.3257 0.839749C32.0767 0.846579 31.1441 0.908796 30.2532 0.977844ZM44.0699 0.970921C43.2838 1.03526 42.5226 1.09157 42.3785 1.096C42.1578 1.10283 42.1165 1.14437 42.1165 1.35964C42.1165 1.50013 42.2237 1.76792 42.3547 1.95476C42.589 2.28883 42.5929 2.32418 42.5924 4.12237C42.5918 5.83426 42.5824 5.93275 42.4434 5.67345C42.1942 5.2084 41.8208 4.89861 41.2652 4.6958C40.8226 4.53435 40.5849 4.50897 39.8296 4.54257C38.6629 4.59463 38.0119 4.8327 37.2881 5.47231C35.788 6.7976 35.1744 8.78457 35.2811 11.9715C35.3411 13.759 35.5895 14.9007 36.1655 16.0356C37.0178 17.7148 38.6444 18.6759 40.3699 18.5198C41.6341 18.4055 42.279 17.888 42.73 16.6258C42.8402 16.3173 42.8484 16.3386 42.9675 17.2438L43.0908 18.1814H45.0335H46.9762V17.9721C46.9762 17.8569 46.869 17.6099 46.7379 17.4231L46.4997 17.0835V8.95534V0.827194L45.9995 0.840487C45.7244 0.847872 44.856 0.906488 44.0699 0.970921ZM19.581 4.69405C17.5244 5.27431 16.133 6.92933 15.576 9.45815C15.3813 10.3419 15.352 12.3991 15.5214 13.289C16.0546 16.0904 17.6587 17.9406 19.9622 18.4112C21.7605 18.7786 23.4464 18.2921 24.7271 17.036C25.5075 16.2707 25.9882 15.4468 26.3396 14.2721C26.8163 12.6786 26.8403 10.5944 26.401 8.9306C25.8048 6.67224 24.3839 5.17092 22.3448 4.64485C21.6771 4.4725 20.2777 4.49743 19.581 4.69405ZM55.2185 4.64374C55.0089 4.71066 54.7065 4.83159 54.5466 4.91236C54.215 5.0799 53.459 5.84099 53.449 6.01758C53.4307 6.33799 53.2776 5.70161 53.2718 5.28114C53.2639 4.70651 53.4645 4.73716 51.3117 4.98178C48.8991 5.25584 48.9772 5.23886 48.9772 5.48985C48.9772 5.60847 49.0844 5.8289 49.2154 5.97974L49.4536 6.25399V11.6687V17.0835L49.2154 17.4231C49.0844 17.6099 48.9772 17.8569 48.9772 17.9721V18.1814H51.4547C54.2676 18.1814 54.1597 18.2181 53.643 17.4381L53.354 17.0017L53.381 12.0761C53.4074 7.27244 53.4131 7.13988 53.6111 6.72505C53.8981 6.12383 54.393 5.78072 54.9854 5.77232C55.5495 5.76438 55.8978 6.0414 56.0328 6.60514C56.0803 6.80351 56.1202 9.22221 56.1215 11.9801L56.1238 16.9943L55.8379 17.3968C55.6807 17.6181 55.552 17.8853 55.552 17.9903C55.552 18.1786 55.5877 18.1814 58.0295 18.1814C60.4713 18.1814 60.507 18.1786 60.507 17.9903C60.507 17.8853 60.3765 17.6157 60.2171 17.3912L59.9273 16.9831L59.9551 12.1129L59.9829 7.24272L60.2385 6.71434C60.7751 5.60524 62.0786 5.37548 62.518 6.31261C62.6829 6.66431 62.6945 7.02625 62.6961 11.8582L62.6977 17.0275L62.4127 17.4429C61.8844 18.2129 61.7909 18.1814 64.6043 18.1814H67.0818V17.9721C67.0818 17.8569 66.9783 17.6152 66.8518 17.4347L66.6218 17.1068L66.5803 12.3132C66.537 7.30475 66.5319 7.2405 66.1002 6.25233C65.8755 5.73807 65.1422 5.03098 64.5771 4.7834C64.1517 4.59712 63.9292 4.56583 63.0301 4.56574C62.0351 4.56574 61.9465 4.58171 61.3427 4.86962C60.6638 5.19335 60.138 5.69856 59.8721 6.28233L59.7165 6.62415L59.4898 6.18346C59.1774 5.57625 58.6645 5.09172 58.0359 4.81017C57.5976 4.61383 57.3399 4.56814 56.5525 4.54728C55.9509 4.53131 55.4592 4.56685 55.2185 4.64374ZM72.1797 4.69396C71.1856 4.87036 70.107 5.1364 69.8213 5.2756C69.6698 5.34945 69.6546 5.55031 69.6546 7.47672V9.59662H70.3018H70.9491L71.6363 7.97612C72.5137 5.90727 72.8229 5.42736 73.4211 5.206C73.824 5.05692 73.9084 5.05359 74.26 5.17221C75.0497 5.4388 75.2116 5.98103 75.1628 8.19508L75.1336 9.51668L73.5614 10.1381C71.673 10.8844 70.8066 11.3609 69.9865 12.1041C68.5885 13.3711 68.2425 15.2032 69.0873 16.8657C69.6387 17.9506 70.6504 18.4938 72.132 18.5003C73.4444 18.5062 74.4248 18.0618 74.984 17.2076L75.254 16.7951L75.321 17.4883L75.3881 18.1814H77.4762H79.5645V17.9418C79.5645 17.8101 79.4679 17.5712 79.3501 17.411C79.1361 17.1204 79.1356 17.1115 79.0839 12.3198C79.0341 7.69107 79.025 7.50063 78.8264 6.98684C78.4011 5.8866 77.6005 5.15412 76.4117 4.77759C75.539 4.50121 73.4939 4.46078 72.1797 4.69396ZM87.7338 4.61512C87.5365 4.66285 87.213 4.78202 87.015 4.87987C86.6333 5.06855 85.8599 5.81986 85.8439 6.01758C85.8224 6.28417 85.6812 5.64004 85.6724 5.23498C85.6647 4.88217 85.6303 4.7966 85.4961 4.79716C85.3034 4.7978 82.2639 5.13935 81.7323 5.22003C81.2786 5.28889 81.254 5.54339 81.6569 6.00005L81.9389 6.31962L81.9424 11.6274L81.9458 16.9352L81.6608 17.3506C81.504 17.5791 81.3756 17.8594 81.3753 17.9737L81.3749 18.1814H83.8524C86.6659 18.1814 86.5724 18.2129 86.044 17.4429L85.759 17.0275L85.7585 12.2673C85.7583 8.16166 85.7792 7.43805 85.9115 7.00567C86.3234 5.65804 87.9065 5.27449 88.4316 6.39495C88.6024 6.75929 88.6127 7.07112 88.6147 11.906L88.6168 17.0309L88.3786 17.3705C88.2475 17.5572 88.1403 17.8161 88.1403 17.9458V18.1814H90.5702H93V17.9721C93 17.8569 92.8928 17.6099 92.7618 17.4231L92.5236 17.0835L92.5217 12.6708C92.5206 10.2438 92.4784 7.98101 92.4278 7.64223C92.2857 6.69034 91.984 6.01851 91.456 5.47757C90.7889 4.7943 90.2388 4.58318 89.0456 4.55272C88.5215 4.53924 87.9313 4.5674 87.7338 4.61512ZM21.823 5.44554C21.9714 5.59933 22.1589 5.9213 22.2399 6.16094C22.5743 7.15115 22.6302 7.92535 22.6282 11.5351C22.6265 14.5142 22.5993 15.2281 22.4604 15.9484C22.1857 17.3735 21.8296 17.8583 21.058 17.8583C19.7318 17.8583 19.3658 16.1928 19.4675 10.6218C19.522 7.6378 19.6146 6.75929 19.9627 5.92555C20.1929 5.37419 20.4995 5.16575 21.0803 5.16575C21.484 5.16575 21.5927 5.20674 21.823 5.44554ZM41.4097 5.49862C42.3652 5.93792 42.6473 7.57808 42.5641 12.2098C42.501 15.7208 42.3613 16.5425 41.7102 17.2326C41.2133 17.7593 40.3817 17.6901 39.9719 17.0882C39.4417 16.3094 39.2019 13.9742 39.2879 10.4274C39.3662 7.19481 39.6354 5.9442 40.3429 5.52631C40.7059 5.31188 40.9876 5.30458 41.4097 5.49862ZM75.1626 13.1275C75.1337 15.9097 75.1327 15.9213 74.8964 16.3212C74.6173 16.7935 74.2907 16.9814 73.7494 16.9814C73.4443 16.9814 73.2954 16.9225 73.0853 16.719C72.6957 16.3416 72.5694 15.8048 72.5716 14.5352C72.5745 12.8807 72.89 11.9086 73.6687 11.1542C73.9992 10.834 74.8745 10.3388 75.1149 10.336C75.157 10.3355 75.1785 11.5917 75.1626 13.1275ZM7.24128 20.1299C5.05681 20.319 3.25445 21.1339 2.33016 22.3502C0.997947 24.1035 1.18652 26.7345 2.76753 28.4525C3.41815 29.1596 4.11661 29.6226 6.00254 30.5971C7.98033 31.619 8.64057 32.0681 9.08042 32.6905C10.5619 34.7867 9.27576 37.8665 6.91882 37.8665C5.41814 37.8665 4.63736 36.8085 3.37642 33.0664L2.74647 31.1971H2.08766H1.42874V34.6946V38.192L1.73843 38.2465C2.32787 38.3501 4.4342 38.573 5.38317 38.6322C7.83578 38.7851 10.1589 38.1676 11.4582 37.0172C12.1359 36.4172 12.5365 35.8075 12.8414 34.912C13.0474 34.3069 13.0859 34.02 13.0922 33.0433C13.1009 31.7083 12.9172 30.9785 12.3372 30.0432C11.6459 28.9285 10.9095 28.3546 8.43513 27.0022C5.88677 25.6093 5.49714 25.3036 5.04738 24.3436C4.83422 23.8888 4.79563 22.885 4.96972 22.3222C5.12132 21.8321 5.62806 21.2856 6.16443 21.0342C6.78018 20.7453 7.87789 20.7409 8.44695 21.0248C9.26347 21.4322 9.68959 22.159 10.4836 24.4987L11.0182 26.0739L11.7025 26.101L12.3868 26.1282V23.2698V20.4115L12.1248 20.3628C11.0123 20.1559 8.38682 20.0307 7.24128 20.1299ZM40.3537 21.0929C39.5676 21.1574 38.8279 21.2141 38.71 21.2189C38.4143 21.231 38.425 21.5983 38.7338 22.0386L38.972 22.3782V29.7663V37.1544L38.7338 37.494C38.6028 37.6807 38.4956 37.9397 38.4956 38.0693V38.3049H40.9254H43.3552V38.0722C43.3552 37.9442 43.2466 37.6804 43.1139 37.4861L42.8724 37.1327L42.8995 32.1571C42.9262 27.2279 42.9284 27.1781 43.1366 26.8009C43.8175 25.568 45.2886 25.5271 45.6337 26.7313C45.7012 26.9668 45.7364 28.8109 45.7365 32.1202L45.7366 37.1511L45.4516 37.5665C44.9232 38.3364 44.8297 38.3049 47.6432 38.3049H50.1206V38.0956C50.1206 37.9805 50.0173 37.7391 49.8912 37.5592L49.6617 37.232L49.6189 32.4376C49.5743 27.4329 49.5684 27.3587 49.139 26.3758C48.9114 25.855 48.1812 25.1537 47.6159 24.913C46.9512 24.63 45.5186 24.5574 44.7682 24.7687C44.1234 24.9504 43.4953 25.3519 43.1458 25.8061L42.8788 26.1529V23.5518V20.9507L42.3309 20.9632C42.0295 20.97 41.1398 21.0284 40.3537 21.0929ZM18.8664 24.7048C18.2988 24.7916 16.7477 25.121 16.3024 25.2491L15.8172 25.3887V27.5545V29.7201H16.4261H17.0351L17.5294 28.5432C18.3568 26.5731 18.6844 25.9494 19.0683 25.6134C19.7059 25.0554 20.5749 25.0968 20.962 25.7036C21.2018 26.0796 21.3421 27.1344 21.3431 28.5706L21.3438 29.5903L19.843 30.173C17.1307 31.2259 15.7521 32.1678 15.1292 33.3937C14.8544 33.9343 14.8161 34.1065 14.784 34.9454C14.7339 36.2569 14.9628 36.9278 15.7117 37.6642C16.4158 38.3568 17.0685 38.6063 18.1993 38.6156C19.5168 38.6265 20.4908 38.1871 21.0531 37.3283L21.325 36.913L21.4059 37.5859L21.4868 38.2588L23.6069 38.2836C26.0294 38.312 25.9665 38.3376 25.4412 37.5352L25.1553 37.0985V32.5517C25.1553 27.6074 25.1373 27.4064 24.6102 26.4682C24.1478 25.6451 23.2559 25.0499 22.0841 24.7823C21.5308 24.6559 19.504 24.607 18.8664 24.7048ZM31.6349 24.7886C29.7457 25.2692 28.3599 26.5762 27.7359 28.4659C27.3319 29.6896 27.2162 30.635 27.2786 32.2047C27.4361 36.1693 29.1621 38.3653 32.3313 38.633C33.1639 38.7034 34.2373 38.5062 34.8191 38.1759C35.5847 37.7412 36.3218 36.7564 36.739 35.6106C36.8556 35.2906 36.8511 35.2524 36.6868 35.1673C36.4008 35.019 36.3683 35.0434 36.0438 35.6514C35.4547 36.7548 34.7726 37.323 33.8975 37.4392C33.2518 37.5249 32.8126 37.4114 32.4029 37.0528C31.9457 36.6526 31.6807 36.0615 31.4943 35.0264C31.1715 33.2329 31.2206 29.406 31.5908 27.5158C31.8582 26.1499 32.3607 25.3562 33.0358 25.2335C33.4137 25.1648 33.742 25.3491 34.0683 25.8131C34.2629 26.0898 34.7451 27.3991 35.2099 28.9124L35.4579 29.7201H36.1192H36.7804V27.4659V25.2118L36.3258 25.0655C35.0242 24.6467 32.7258 24.511 31.6349 24.7886ZM55.3814 24.7839C54.1829 25.036 53.1883 25.6319 52.6507 26.4199C52.0636 27.2805 51.8851 28.4172 52.1704 29.4783C52.5175 30.7696 53.2481 31.4628 55.4888 32.6269C57.3841 33.6115 57.8789 33.9562 58.2647 34.5609C58.528 34.9733 58.5535 35.0837 58.5524 35.8054C58.5515 36.4455 58.5106 36.6713 58.3389 36.9842C57.8006 37.965 56.5275 38.2905 55.5034 37.7093C54.8007 37.3103 54.1784 36.2368 53.5076 34.2664L53.1541 33.2279H52.5902H52.0264V35.7108V38.1937L52.6219 38.291C54.8872 38.6612 56.9534 38.7257 58.0592 38.4606C59.8431 38.0329 60.9073 37.0905 61.3138 35.5786C61.5007 34.8834 61.5003 33.8797 61.3128 33.1781C60.9204 31.7095 60.2775 31.0601 57.9842 29.8156C55.4184 28.4233 54.9769 28.0261 54.9036 27.0444C54.821 25.9388 55.4466 25.2893 56.5941 25.2893C57.764 25.2893 58.2401 25.7968 59.1269 27.9893L59.491 28.8893H60.0466H60.6023V26.957C60.6023 25.1972 60.5874 25.0204 60.4355 24.975C59.3772 24.6595 56.4913 24.5504 55.3814 24.7839ZM21.3281 33.1125C21.2933 35.7558 21.2922 35.7685 21.041 36.2906C20.7562 36.8826 20.429 37.1049 19.8419 37.1049C19.4323 37.1049 19.1595 36.9115 18.894 36.433C18.6808 36.0488 18.6033 34.018 18.7702 33.1925C19.0118 31.9984 19.6634 31.1109 20.6135 30.6824C20.8842 30.5603 21.1635 30.46 21.2343 30.4595C21.3404 30.4588 21.357 30.9278 21.3281 33.1125Z" fill="white"/>
</svg>
